<?xml version="1.0"?>
<svg xmlns="http://www.w3.org/2000/svg" width="50" height="50" viewBox="0 0 50 50">
    <path d="M 8 8 C 7.448 8 7 8.448 7 9 L 7 12 C 7 12.552 7.448 13 8 13 L 42 13 C 42.553 13 43 12.552 43 12 L 43 9 C 43 8.448 42.553 8 42 8 L 8 8 z M 8.34375 15 L 12.59375 37.5625 L 12.6875 38 L 13.40625 41.90625 C 13.90625 44.27825 15.9855 46 18.3125 46 L 31.6875 46 C 34.1005 46 36.22675 44.209 36.59375 41.875 L 37.40625 37.5625 L 41.65625 15 L 39.40625 15 L 37.40625 17 L 38.9375 18.53125 L 38.5 20.90625 L 36 18.40625 L 31.90625 22.5 L 36 26.59375 L 37.59375 25 C 37.63875 24.955 37.7 24.94125 37.75 24.90625 L 36.75 30.15625 L 36 29.40625 L 31.90625 33.5 L 35.46875 37.03125 L 34.78125 40.625 L 31.40625 44 L 28.59375 44 L 25 40.40625 L 21.40625 44 L 18.59375 44 L 15.21875 40.625 L 14.53125 37.03125 L 18.09375 33.5 L 14 29.40625 L 13.25 30.15625 L 12.25 24.90625 C 12.301 24.94125 12.36125 24.955 12.40625 25 L 14 26.59375 L 18.09375 22.5 L 14 18.40625 L 11.5 20.90625 L 11.0625 18.53125 L 12.59375 17 L 10.59375 15 L 8.34375 15 z M 17.40625 15 L 15.40625 17 L 19.5 21.09375 L 23.59375 17 L 21.59375 15 L 17.40625 15 z M 28.40625 15 L 26.40625 17 L 30.5 21.09375 L 34.59375 17 L 32.59375 15 L 28.40625 15 z M 25 18.40625 L 20.90625 22.5 L 25 26.59375 L 29.09375 22.5 L 25 18.40625 z M 19.5 23.90625 L 15.40625 28 L 19.5 32.09375 L 23.59375 28 L 19.5 23.90625 z M 30.5 23.90625 L 26.40625 28 L 30.5 32.09375 L 34.59375 28 L 30.5 23.90625 z M 25 29.40625 L 20.90625 33.5 L 25 37.59375 L 29.09375 33.5 L 25 29.40625 z M 19.5 34.90625 L 15.90625 38.5 L 20 42.59375 L 23.59375 39 L 19.5 34.90625 z M 30.5 34.9375 L 26.40625 39 L 30 42.59375 L 34.09375 38.5 L 30.5 34.9375 z"/>
</svg>
